<svg width="15" height="15" viewBox="0 0 15 15" fill="none" xmlns="http://www.w3.org/2000/svg">
<path fill-rule="evenodd" clip-rule="evenodd" d="M12.1575 0.504077C10.3625 0.54696 8.75306 0.807403 7.3047 1.28935C5.90187 1.75613 4.71747 2.41219 3.75319 3.25658C3.59601 3.39423 3.27484 3.70946 3.13191 3.86639C2.43204 4.63484 1.92748 5.50873 1.64392 6.44358C1.26418 7.69548 1.27692 9.02917 1.68151 10.3826C1.77046 10.6802 1.87293 10.9615 2.00444 11.2693C2.07715 11.4395 2.23484 11.7779 2.25867 11.8149C2.2712 11.8344 2.26477 11.8412 1.63349 12.4736C1.24812 12.8596 0.980454 13.1342 0.957238 13.1673C0.697949 13.5369 0.765672 14.0371 1.11258 14.3146C1.40713 14.5502 1.81646 14.5624 2.1287 14.3448C2.16122 14.3222 2.43616 14.0544 2.82246 13.6691L3.46237 13.0308L3.61813 13.1063C4.6286 13.5963 5.60198 13.8606 6.61947 13.9213C6.82474 13.9335 7.36252 13.9261 7.5492 13.9085C8.66475 13.8033 9.64083 13.4601 10.5661 12.8476C12.8153 11.3587 14.2841 8.50603 14.6891 4.83989C14.7773 4.04141 14.806 3.4239 14.7989 2.47533C14.7947 1.90488 14.7901 1.74438 14.7681 1.38501C14.7519 1.12047 14.6873 0.960279 14.5307 0.79645C14.384 0.642927 14.2006 0.558684 13.9727 0.540109C13.5975 0.50952 12.6865 0.491434 12.1575 0.504077ZM13.1145 2.18984C13.1233 2.19855 13.1204 3.11885 13.1109 3.36515C13.0299 5.46279 12.6296 7.24155 11.9054 8.72147C10.9277 10.7197 9.42913 11.9485 7.66246 12.2008C7.4 12.2383 7.3286 12.2426 6.97317 12.2426C6.61045 12.2426 6.52154 12.2366 6.21995 12.192C5.75331 12.123 5.20024 11.9664 4.76093 11.7787L4.72849 11.7649L7.69592 8.79742C9.63966 6.85366 10.6766 5.81096 10.7019 5.77488C10.753 5.70187 10.8091 5.58139 10.8326 5.49442C10.8491 5.43351 10.8516 5.40495 10.8512 5.28315C10.8507 5.12844 10.8408 5.07533 10.7902 4.95376C10.736 4.82353 10.6104 4.67079 10.4925 4.59162C10.2063 4.39941 9.83759 4.3972 9.55081 4.58596C9.48442 4.62967 9.14968 4.96135 6.50728 7.60168C4.87436 9.23333 3.53628 10.5662 3.53376 10.5637C3.5241 10.5541 3.41267 10.264 3.36468 10.1235C3.20788 9.66465 3.11114 9.21672 3.06816 8.75046C3.05061 8.56013 3.04829 8.11409 3.06393 7.93852C3.1207 7.30112 3.27691 6.74348 3.55393 6.18927C4.06355 5.16972 4.9525 4.29206 6.15932 3.61697C6.74617 3.28869 7.45871 2.99253 8.18272 2.77598C9.37337 2.41987 10.6702 2.22764 12.1658 2.18558C12.3287 2.18099 13.1092 2.18449 13.1145 2.18984Z" fill="black"/>
</svg>
