<svg width="17" height="15" viewBox="0 0 17 15" fill="none" xmlns="http://www.w3.org/2000/svg">
<path d="M16.7999 7.86842V11.5526C16.7999 11.7481 16.7233 11.9355 16.5869 12.0737C16.4505 12.2118 16.2655 12.2895 16.0727 12.2895H15.3454C15.3454 12.8757 15.1155 13.438 14.7063 13.8526C14.2972 14.2671 13.7422 14.5 13.1636 14.5C12.5849 14.5 12.03 14.2671 11.6208 13.8526C11.2116 13.438 10.9817 12.8757 10.9817 12.2895H6.61811C6.61811 12.8757 6.38824 13.438 5.97907 13.8526C5.5699 14.2671 5.01494 14.5 4.43629 14.5C3.85764 14.5 3.30268 14.2671 2.89351 13.8526C2.48434 13.438 2.25447 12.8757 2.25447 12.2895H1.5272C1.33431 12.2895 1.14933 12.2118 1.01294 12.0737C0.876549 11.9355 0.799927 11.7481 0.799927 11.5526V2.71053C0.799927 2.12426 1.0298 1.562 1.43897 1.14745C1.84814 0.732894 2.40309 0.5 2.98174 0.5H9.5272C10.1059 0.5 10.6608 0.732894 11.07 1.14745C11.4791 1.562 11.709 2.12426 11.709 2.71053V4.18421H13.1636C13.5023 4.18421 13.8363 4.26411 14.1393 4.41758C14.4423 4.57105 14.7058 4.79388 14.909 5.06842L16.6545 7.42632C16.6757 7.45834 16.6929 7.49302 16.7054 7.52947L16.749 7.61053C16.7811 7.6927 16.7984 7.78006 16.7999 7.86842ZM5.16356 12.2895C5.16356 12.1437 5.12091 12.0013 5.041 11.8801C4.96108 11.7589 4.8475 11.6645 4.7146 11.6087C4.58171 11.5529 4.43548 11.5384 4.29441 11.5668C4.15333 11.5952 4.02374 11.6654 3.92203 11.7684C3.82032 11.8715 3.75105 12.0028 3.72299 12.1457C3.69493 12.2887 3.70933 12.4368 3.76438 12.5715C3.81942 12.7061 3.91264 12.8212 4.03224 12.9021C4.15184 12.9831 4.29245 13.0263 4.43629 13.0263C4.62918 13.0263 4.81416 12.9487 4.95055 12.8105C5.08694 12.6723 5.16356 12.4849 5.16356 12.2895ZM10.2545 2.71053C10.2545 2.5151 10.1778 2.32769 10.0415 2.1895C9.90507 2.05132 9.72008 1.97368 9.5272 1.97368H2.98174C2.78886 1.97368 2.60387 2.05132 2.46748 2.1895C2.33109 2.32769 2.25447 2.5151 2.25447 2.71053V10.8158H2.82174C3.02624 10.5878 3.2755 10.4057 3.55354 10.2811C3.83158 10.1565 4.13226 10.0921 4.43629 10.0921C4.74032 10.0921 5.041 10.1565 5.31904 10.2811C5.59708 10.4057 5.84634 10.5878 6.05084 10.8158H10.2545V2.71053ZM11.709 7.13158H14.6181L13.7454 5.95263C13.6776 5.86112 13.5898 5.78684 13.4888 5.73568C13.3878 5.68453 13.2765 5.65789 13.1636 5.65789H11.709V7.13158ZM13.8908 12.2895C13.8908 12.1437 13.8482 12.0013 13.7683 11.8801C13.6884 11.7589 13.5748 11.6645 13.4419 11.6087C13.309 11.5529 13.1628 11.5384 13.0217 11.5668C12.8806 11.5952 12.751 11.6654 12.6493 11.7684C12.5476 11.8715 12.4783 12.0028 12.4503 12.1457C12.4222 12.2887 12.4366 12.4368 12.4917 12.5715C12.5467 12.7061 12.6399 12.8212 12.7595 12.9021C12.8791 12.9831 13.0197 13.0263 13.1636 13.0263C13.3564 13.0263 13.5414 12.9487 13.6778 12.8105C13.8142 12.6723 13.8908 12.4849 13.8908 12.2895ZM15.3454 8.60526H11.709V10.6537C12.1382 10.265 12.7016 10.064 13.2765 10.0944C13.8514 10.1247 14.3911 10.384 14.7781 10.8158H15.3454V8.60526Z" fill="black"/>
</svg>
