<svg width="16" height="15" viewBox="0 0 16 15" fill="none" xmlns="http://www.w3.org/2000/svg">
<path d="M9.80892 6.75462H9.05892V6.00462C9.05892 5.8057 8.97991 5.61494 8.83925 5.47429C8.6986 5.33363 8.50783 5.25462 8.30892 5.25462C8.11001 5.25462 7.91924 5.33363 7.77859 5.47429C7.63794 5.61494 7.55892 5.8057 7.55892 6.00462V6.75462H6.80892C6.61001 6.75462 6.41924 6.83363 6.27859 6.97429C6.13794 7.11494 6.05892 7.3057 6.05892 7.50462C6.05892 7.70353 6.13794 7.89429 6.27859 8.03495C6.41924 8.1756 6.61001 8.25462 6.80892 8.25462H7.55892V9.00462C7.55892 9.20353 7.63794 9.39429 7.77859 9.53495C7.91924 9.6756 8.11001 9.75462 8.30892 9.75462C8.50783 9.75462 8.6986 9.6756 8.83925 9.53495C8.97991 9.39429 9.05892 9.20353 9.05892 9.00462V8.25462H9.80892C10.0078 8.25462 10.1986 8.1756 10.3393 8.03495C10.4799 7.89429 10.5589 7.70353 10.5589 7.50462C10.5589 7.3057 10.4799 7.11494 10.3393 6.97429C10.1986 6.83363 10.0078 6.75462 9.80892 6.75462ZM14.4289 2.25462C13.6292 1.46314 12.5729 0.983569 11.4507 0.902428C10.3285 0.821286 9.21419 1.14392 8.30892 1.81212C7.35466 1.10234 6.16692 0.7805 4.98486 0.911394C3.80281 1.04229 2.71425 1.6162 1.9384 2.51755C1.16255 3.41891 0.757039 4.58076 0.803523 5.76913C0.850007 6.9575 1.34504 8.08412 2.18892 8.92212L6.68892 13.4596C7.1108 13.881 7.68267 14.1176 8.27892 14.1176C8.87517 14.1176 9.44705 13.881 9.86892 13.4596L14.3689 8.92212C14.8121 8.4891 15.1654 7.97277 15.4084 7.40279C15.6514 6.83281 15.7794 6.22043 15.7849 5.60084C15.7905 4.98125 15.6736 4.36666 15.4409 3.7924C15.2082 3.21814 14.8643 2.69554 14.4289 2.25462ZM13.3714 7.84962L8.87142 12.3496C8.8017 12.4199 8.71875 12.4757 8.62736 12.5138C8.53596 12.5519 8.43793 12.5715 8.33892 12.5715C8.23991 12.5715 8.14188 12.5519 8.05049 12.5138C7.9591 12.4757 7.87614 12.4199 7.80642 12.3496L3.30642 7.84962C2.71824 7.24837 2.38888 6.44072 2.38888 5.59962C2.38888 4.75852 2.71824 3.95086 3.30642 3.34962C3.90579 2.75786 4.71415 2.42604 5.55642 2.42604C6.39869 2.42604 7.20706 2.75786 7.80642 3.34962C7.87614 3.41991 7.9591 3.47571 8.05049 3.51378C8.14188 3.55186 8.23991 3.57147 8.33892 3.57147C8.43793 3.57147 8.53596 3.55186 8.62736 3.51378C8.71875 3.47571 8.8017 3.41991 8.87142 3.34962C9.47079 2.75786 10.2792 2.42604 11.1214 2.42604C11.9637 2.42604 12.7721 2.75786 13.3714 3.34962C13.9641 3.95153 14.2963 4.76238 14.2963 5.60712C14.2963 6.45185 13.9641 7.26271 13.3714 7.86462V7.84962Z" fill="black"/>
</svg>
